<svg width="32" height="32" viewBox="0 0 32 32" fill="none" xmlns="http://www.w3.org/2000/svg">
<path d="M14.72 14.6432C14.0314 14.6432 13.3583 14.439 12.7857 14.0564C12.2132 13.6739 11.7669 13.1301 11.5034 12.4939C11.2399 11.8578 11.171 11.1577 11.3053 10.4824C11.4396 9.807 11.7712 9.18664 12.2581 8.69973C12.7451 8.21282 13.3654 7.88123 14.0408 7.74689C14.7161 7.61255 15.4162 7.6815 16.0524 7.94502C16.6885 8.20853 17.2323 8.65477 17.6148 9.22732C17.9974 9.79987 18.2016 10.473 18.2016 11.1616C18.2016 11.6188 18.1115 12.0715 17.9366 12.4939C17.7616 12.9164 17.5052 13.3002 17.1819 13.6235C16.8586 13.9468 16.4748 14.2032 16.0524 14.3782C15.6299 14.5531 15.1772 14.6432 14.72 14.6432ZM14.72 8.95999C14.2846 8.95999 13.8589 9.08912 13.4969 9.33103C13.1348 9.57295 12.8526 9.91679 12.686 10.3191C12.5194 10.7214 12.4758 11.164 12.5607 11.5911C12.6457 12.0182 12.8553 12.4105 13.1632 12.7184C13.4711 13.0263 13.8634 13.2359 14.2905 13.3209C14.7176 13.4058 15.1602 13.3622 15.5625 13.1956C15.9648 13.029 16.3087 12.7468 16.5506 12.3847C16.7925 12.0227 16.9216 11.597 16.9216 11.1616C16.9216 10.8725 16.8647 10.5862 16.754 10.3191C16.6434 10.052 16.4812 9.80927 16.2768 9.60483C16.0723 9.40039 15.8296 9.23822 15.5625 9.12758C15.2954 9.01694 15.0091 8.95999 14.72 8.95999Z" fill="#1B1C1D"/>
<path d="M19.9168 23.68H18.6368V18.8416C18.6688 18.3709 18.5153 17.9064 18.209 17.5476C17.9028 17.1887 17.4682 16.964 16.9984 16.9216H12.4416C11.9717 16.964 11.5372 17.1887 11.2309 17.5476C10.9247 17.9064 10.7712 18.3709 10.8032 18.8416V23.68H9.52318V18.8416C9.48839 18.0309 9.77577 17.2394 10.3226 16.6398C10.8693 16.0403 11.6311 15.6814 12.4416 15.6416H16.9984C17.8088 15.6814 18.5706 16.0403 19.1174 16.6398C19.6642 17.2394 19.9516 18.0309 19.9168 18.8416V23.68Z" fill="#1B1C1D"/>
<path d="M14.72 25.6C12.5681 25.6 10.4646 24.9619 8.6754 23.7664C6.88619 22.5709 5.49167 20.8716 4.66819 18.8836C3.84471 16.8955 3.62925 14.7079 4.04906 12.5974C4.46886 10.4869 5.50508 8.54827 7.02668 7.02667C8.54827 5.50508 10.4869 4.46886 12.5974 4.04905C14.7079 3.62924 16.8955 3.8447 18.8836 4.66818C20.8717 5.49167 22.5709 6.88618 23.7664 8.67539C24.9619 10.4646 25.6 12.5681 25.6 14.72C25.5966 17.6045 24.4492 20.3699 22.4096 22.4096C20.3699 24.4492 17.6045 25.5966 14.72 25.6ZM14.72 5.11999C12.8213 5.11999 10.9652 5.68302 9.38653 6.73789C7.80782 7.79275 6.57736 9.29206 5.85076 11.0462C5.12416 12.8004 4.93404 14.7306 5.30446 16.5929C5.67488 18.4551 6.58919 20.1656 7.93178 21.5082C9.27436 22.8508 10.9849 23.7651 12.8471 24.1355C14.7094 24.5059 16.6396 24.3158 18.3938 23.5892C20.1479 22.8626 21.6472 21.6322 22.7021 20.0535C23.757 18.4748 24.32 16.6187 24.32 14.72C24.32 12.1739 23.3086 9.73212 21.5082 7.93177C19.7079 6.13142 17.2661 5.11999 14.72 5.11999Z" fill="#1B1C1D"/>
<path d="M22.2156 21.3092L21.3105 22.2143L27.0669 27.9708L27.972 27.0657L22.2156 21.3092Z" fill="#1B1C1D"/>
</svg>
