<svg width="32" height="32" viewBox="0 0 32 32" fill="none" xmlns="http://www.w3.org/2000/svg">
<path d="M21.12 14.08C20.4871 14.08 19.8684 13.8923 19.3422 13.5407C18.8159 13.1891 18.4058 12.6893 18.1636 12.1046C17.9214 11.5199 17.858 10.8764 17.9815 10.2557C18.105 9.63497 18.4097 9.06478 18.8573 8.61725C19.3048 8.16972 19.875 7.86495 20.4957 7.74148C21.1164 7.61801 21.7599 7.68138 22.3446 7.92358C22.9293 8.16578 23.4291 8.57593 23.7807 9.10217C24.1323 9.62841 24.32 10.2471 24.32 10.88C24.32 11.3002 24.2372 11.7163 24.0764 12.1046C23.9156 12.4928 23.6799 12.8456 23.3827 13.1427C23.0856 13.4399 22.7328 13.6756 22.3446 13.8364C21.9563 13.9972 21.5402 14.08 21.12 14.08ZM21.12 8.95999C20.7403 8.95999 20.369 9.0726 20.0533 9.28357C19.7376 9.49454 19.4915 9.79441 19.3462 10.1452C19.2008 10.4961 19.1628 10.8821 19.2369 11.2546C19.311 11.627 19.4938 11.9691 19.7624 12.2376C20.0309 12.5062 20.373 12.689 20.7454 12.7631C21.1179 12.8372 21.5039 12.7992 21.8548 12.6538C22.2056 12.5085 22.5054 12.2624 22.7164 11.9467C22.9274 11.6309 23.04 11.2597 23.04 10.88C23.04 10.3708 22.8377 9.88242 22.4776 9.52235C22.1176 9.16228 21.6292 8.95999 21.12 8.95999Z" fill="#1B1C1D"/>
<path d="M26.88 27.52H25.6V17.664C25.5771 17.3777 25.4445 17.1113 25.2298 16.9205C25.0151 16.7297 24.735 16.6292 24.448 16.64H17.28C17.0824 16.6252 16.8985 16.5332 16.768 16.384L12.928 11.264L13.952 10.496L17.6 15.36H24.448C25.0742 15.3495 25.6796 15.5849 26.1343 16.0156C26.5889 16.4464 26.8566 17.0381 26.88 17.664V27.52Z" fill="#1B1C1D"/>
<path d="M28.9024 21.76H26.3424V20.48H28.9024C29.045 20.48 29.1817 20.4234 29.2825 20.3225C29.3834 20.2217 29.44 20.085 29.44 19.9424V6.9376C29.44 6.79501 29.3834 6.65827 29.2825 6.55745C29.1817 6.45663 29.045 6.4 28.9024 6.4H3.0976C2.95502 6.4 2.81828 6.45663 2.71746 6.55745C2.61664 6.65827 2.56 6.79501 2.56 6.9376V19.9424C2.56 20.085 2.61664 20.2217 2.71746 20.3225C2.81828 20.4234 2.95502 20.48 3.0976 20.48H17.92V21.76H3.0976C2.61658 21.7566 2.15621 21.5641 1.81607 21.2239C1.47592 20.8838 1.28335 20.4234 1.28 19.9424L1.28 6.9376C1.28335 6.45657 1.47592 5.9962 1.81607 5.65606C2.15621 5.31592 2.61658 5.12335 3.0976 5.12H28.9024C29.3834 5.12335 29.8438 5.31592 30.1839 5.65606C30.5241 5.9962 30.7166 6.45657 30.72 6.9376V19.9424C30.7166 20.4234 30.5241 20.8838 30.1839 21.2239C29.8438 21.5641 29.3834 21.7566 28.9024 21.76Z" fill="#1B1C1D"/>
<path d="M11.1232 8.95999H4.48V10.24H11.1232V8.95999Z" fill="#1B1C1D"/>
<path d="M11.1232 12.8H4.48V14.08H11.1232V12.8Z" fill="#1B1C1D"/>
<path d="M9.2416 16.64H4.48V17.92H9.2416V16.64Z" fill="#1B1C1D"/>
<path d="M17.92 18.56H16.64V27.52H17.92V18.56Z" fill="#1B1C1D"/>
</svg>
