<svg width="32" height="32" viewBox="0 0 32 32" fill="none" xmlns="http://www.w3.org/2000/svg">
<path d="M26.4448 8.96H19.8656C19.6958 8.96 19.5331 8.89257 19.413 8.77255C19.293 8.65252 19.2256 8.48974 19.2256 8.32V1.92H20.5056V7.68H26.4448V8.96Z" fill="#1B1C1D"/>
<path d="M26.24 30.72H5.76C5.59026 30.72 5.42747 30.6526 5.30745 30.5326C5.18742 30.4125 5.12 30.2497 5.12 30.08V1.92001C5.12 1.75027 5.18742 1.58748 5.30745 1.46746C5.42747 1.34743 5.59026 1.28001 5.76 1.28001H19.7248C19.8087 1.27898 19.892 1.29554 19.9691 1.3286C20.0463 1.36167 20.1156 1.41052 20.1728 1.47201L26.688 8.03841C26.7483 8.09649 26.7963 8.16605 26.8293 8.24299C26.8623 8.31993 26.8795 8.4027 26.88 8.48641V30.08C26.88 30.2497 26.8126 30.4125 26.6925 30.5326C26.5725 30.6526 26.4097 30.72 26.24 30.72ZM6.39999 29.44H25.6V8.75521L19.456 2.56001H6.39999V29.44Z" fill="#1B1C1D"/>
<path d="M16 15.36H9.59999C9.43025 15.36 9.26747 15.2926 9.14744 15.1725C9.02742 15.0525 8.95999 14.8897 8.95999 14.72V8.32C8.95999 8.15026 9.02742 7.98748 9.14744 7.86745C9.26747 7.74743 9.43025 7.68 9.59999 7.68H16C16.1697 7.68 16.3325 7.74743 16.4525 7.86745C16.5726 7.98748 16.64 8.15026 16.64 8.32V14.72C16.64 14.8897 16.5726 15.0525 16.4525 15.1725C16.3325 15.2926 16.1697 15.36 16 15.36ZM10.24 14.08H15.36V8.96H10.24V14.08Z" fill="#1B1C1D"/>
<path d="M19.2 26.7904C18.4405 26.7904 17.6981 26.5652 17.0666 26.1432C16.4351 25.7213 15.9429 25.1216 15.6523 24.4199C15.3616 23.7182 15.2856 22.9461 15.4338 22.2013C15.5819 21.4564 15.9477 20.7721 16.4847 20.2351C17.0217 19.6981 17.706 19.3324 18.4508 19.1842C19.1957 19.036 19.9678 19.1121 20.6695 19.4027C21.3712 19.6933 21.9709 20.1855 22.3928 20.817C22.8148 21.4485 23.04 22.1909 23.04 22.9504C23.04 23.9688 22.6354 24.9456 21.9153 25.6657C21.1951 26.3858 20.2184 26.7904 19.2 26.7904ZM19.2 20.3904C18.6937 20.3904 18.1987 20.5405 17.7777 20.8218C17.3567 21.1031 17.0286 21.503 16.8349 21.9707C16.6411 22.4385 16.5904 22.9532 16.6892 23.4498C16.788 23.9464 17.0318 24.4026 17.3898 24.7606C17.7478 25.1186 18.204 25.3624 18.7006 25.4612C19.1971 25.56 19.7119 25.5093 20.1797 25.3155C20.6474 25.1218 21.0473 24.7936 21.3286 24.3727C21.6098 23.9517 21.76 23.4567 21.76 22.9504C21.76 22.2714 21.4903 21.6203 21.0102 21.1402C20.5301 20.6601 19.8789 20.3904 19.2 20.3904Z" fill="#1B1C1D"/>
</svg>
