<svg width="32" height="32" viewBox="0 0 32 32" fill="none" xmlns="http://www.w3.org/2000/svg">
<path d="M16 11.52C15.2405 11.52 14.4981 11.2948 13.8666 10.8728C13.2351 10.4509 12.7429 9.85117 12.4523 9.1495C12.1617 8.44783 12.0856 7.67574 12.2338 6.93085C12.3819 6.18596 12.7477 5.50174 13.2847 4.96471C13.8217 4.42767 14.506 4.06195 15.2509 3.91378C15.9957 3.76562 16.7678 3.84166 17.4695 4.1323C18.1712 4.42294 18.7709 4.91512 19.1928 5.54661C19.6148 6.17809 19.84 6.92052 19.84 7.68C19.84 8.69843 19.4354 9.67515 18.7153 10.3953C17.9951 11.1154 17.0184 11.52 16 11.52ZM16 5.12C15.4937 5.12 14.9987 5.27014 14.5777 5.55144C14.1567 5.83273 13.8286 6.23255 13.6349 6.70033C13.4411 7.16811 13.3904 7.68284 13.4892 8.17943C13.588 8.67602 13.8318 9.13217 14.1898 9.49019C14.5478 9.84821 15.004 10.092 15.5006 10.1908C15.9972 10.2896 16.5119 10.2389 16.9797 10.0451C17.4474 9.85137 17.8473 9.52325 18.1286 9.10226C18.4099 8.68127 18.56 8.18632 18.56 7.68C18.56 7.00104 18.2903 6.3499 17.8102 5.8698C17.3301 5.38971 16.679 5.12 16 5.12Z" fill="#1B1C1D"/>
<path d="M5.76 14.08C5.1271 14.08 4.50841 13.8923 3.98217 13.5407C3.45594 13.1891 3.04579 12.6893 2.80358 12.1046C2.56138 11.5199 2.49801 10.8765 2.62149 10.2557C2.74496 9.63497 3.04973 9.06479 3.49726 8.61726C3.94479 8.16973 4.51497 7.86496 5.13571 7.74149C5.75645 7.61802 6.39986 7.68139 6.98459 7.92359C7.56931 8.16579 8.06908 8.57594 8.4207 9.10218C8.77232 9.62841 8.96 10.2471 8.96 10.88C8.96 11.3002 8.87723 11.7163 8.71641 12.1046C8.5556 12.4928 8.31989 12.8456 8.02274 13.1427C7.72559 13.4399 7.37283 13.6756 6.98459 13.8364C6.59634 13.9972 6.18023 14.08 5.76 14.08ZM5.76 8.96C5.38026 8.96 5.00905 9.07261 4.6933 9.28358C4.37756 9.49455 4.13147 9.79442 3.98615 10.1452C3.84083 10.4961 3.80281 10.8821 3.87689 11.2546C3.95098 11.627 4.13384 11.9691 4.40235 12.2376C4.67087 12.5062 5.01298 12.689 5.38543 12.7631C5.75787 12.8372 6.14392 12.7992 6.49475 12.6539C6.84559 12.5085 7.14545 12.2624 7.35642 11.9467C7.56739 11.631 7.68 11.2597 7.68 10.88C7.68 10.3708 7.47772 9.88243 7.11765 9.52236C6.75758 9.16229 6.26922 8.96 5.76 8.96Z" fill="#1B1C1D"/>
<path d="M21.76 27.52H20.48V16.32C20.5189 15.7691 20.3392 15.2251 19.9799 14.8058C19.6205 14.3866 19.1103 14.1258 18.56 14.08H13.44C12.8897 14.1258 12.3795 14.3866 12.0201 14.8058C11.6608 15.2251 11.4811 15.7691 11.52 16.32V27.52H10.24V16.32C10.1983 15.4291 10.5118 14.558 11.1118 13.898C11.7117 13.238 12.5491 12.8431 13.44 12.8H18.56C19.4509 12.8431 20.2882 13.238 20.8882 13.898C21.4882 14.558 21.8017 15.4291 21.76 16.32V27.52Z" fill="#1B1C1D"/>
<path d="M2.56 23.68H1.28V18.4832C1.26618 17.6749 1.57152 16.8938 2.12981 16.3091C2.6881 15.7245 3.45434 15.3835 4.2624 15.36H8.32V16.64H4.2624C3.79268 16.66 3.34996 16.8651 3.03097 17.2104C2.71199 17.5558 2.54266 18.0134 2.56 18.4832V23.68Z" fill="#1B1C1D"/>
<path d="M26.24 14.08C25.6071 14.08 24.9884 13.8923 24.4622 13.5407C23.9359 13.1891 23.5258 12.6893 23.2836 12.1046C23.0414 11.5199 22.978 10.8765 23.1015 10.2557C23.225 9.63497 23.5297 9.06479 23.9773 8.61726C24.4248 8.16973 24.995 7.86496 25.6157 7.74149C26.2364 7.61802 26.8799 7.68139 27.4646 7.92359C28.0493 8.16579 28.5491 8.57594 28.9007 9.10218C29.2523 9.62841 29.44 10.2471 29.44 10.88C29.44 11.7287 29.1029 12.5426 28.5027 13.1427C27.9026 13.7429 27.0887 14.08 26.24 14.08ZM26.24 8.96C25.8603 8.96 25.489 9.07261 25.1733 9.28358C24.8576 9.49455 24.6115 9.79442 24.4661 10.1452C24.3208 10.4961 24.2828 10.8821 24.3569 11.2546C24.431 11.627 24.6138 11.9691 24.8824 12.2376C25.1509 12.5062 25.493 12.689 25.8654 12.7631C26.2379 12.8372 26.6239 12.7992 26.9747 12.6539C27.3256 12.5085 27.6254 12.2624 27.8364 11.9467C28.0474 11.631 28.16 11.2597 28.16 10.88C28.16 10.3708 27.9577 9.88243 27.5976 9.52236C27.2376 9.16229 26.7492 8.96 26.24 8.96Z" fill="#1B1C1D"/>
<path d="M30.72 23.68H29.44V18.4832C29.4573 18.0134 29.288 17.5558 28.969 17.2104C28.65 16.8651 28.2073 16.66 27.7376 16.64H23.68V15.36H27.7376C28.5457 15.3835 29.3119 15.7245 29.8702 16.3091C30.4285 16.8938 30.7338 17.6749 30.72 18.4832V23.68Z" fill="#1B1C1D"/>
</svg>
