<svg width="32" height="32" viewBox="0 0 32 32" fill="none" xmlns="http://www.w3.org/2000/svg">
<path d="M14.272 16.64C14.099 16.6396 13.9333 16.5705 13.8112 16.448L10.4064 13.0432L11.3024 12.1344L14.272 15.0912L20.672 8.6912L21.568 9.6L14.72 16.448C14.6619 16.5083 14.5923 16.5563 14.5154 16.5893C14.4384 16.6223 14.3557 16.6395 14.272 16.64Z" fill="#1B1C1D"/>
<path d="M16 23.04C13.8481 23.04 11.7446 22.4019 9.9554 21.2064C8.16619 20.0109 6.77167 18.3117 5.94819 16.3236C5.12471 14.3355 4.90925 12.1479 5.32906 10.0374C5.74886 7.9269 6.78508 5.98827 8.30668 4.46667C9.82827 2.94508 11.7669 1.90886 13.8774 1.48905C15.9879 1.06924 18.1755 1.28471 20.1636 2.10819C22.1517 2.93167 23.8509 4.32619 25.0464 6.11539C26.2419 7.9046 26.88 10.0081 26.88 12.16C26.8766 15.0445 25.7292 17.8099 23.6896 19.8496C21.6499 21.8892 18.8845 23.0366 16 23.04ZM16 2.56C14.1013 2.56 12.2452 3.12303 10.6665 4.17789C9.08781 5.23275 7.85736 6.73206 7.13076 8.48624C6.40416 10.2404 6.21404 12.1706 6.58446 14.0329C6.95488 15.8951 7.86919 17.6056 9.21177 18.9482C10.5544 20.2908 12.2649 21.2051 14.1271 21.5755C15.9893 21.946 17.9196 21.7558 19.6738 21.0292C21.4279 20.3026 22.9272 19.0722 23.9821 17.4935C25.037 15.9148 25.6 14.0587 25.6 12.16C25.6 9.61392 24.5886 7.17212 22.7882 5.37177C20.9879 3.57142 18.5461 2.56 16 2.56Z" fill="#1B1C1D"/>
<path d="M22.3744 30.72C22.2524 30.7159 22.1334 30.6806 22.0288 30.6176L16 26.88L9.9584 30.72C9.86253 30.7802 9.75161 30.8122 9.6384 30.8122C9.52519 30.8122 9.41427 30.7802 9.3184 30.72C9.20142 30.6615 9.10471 30.5692 9.04081 30.4551C8.9769 30.341 8.94875 30.2103 8.96 30.08V20.0192H10.24V28.9792L15.6288 25.5744C15.733 25.5111 15.8525 25.4776 15.9744 25.4776C16.0963 25.4776 16.2158 25.5111 16.32 25.5744L21.76 28.9152V20.0192H23.04V30.08C23.039 30.1949 23.0077 30.3074 22.9492 30.4063C22.8908 30.5052 22.8073 30.5869 22.7072 30.6432C22.6053 30.6985 22.4902 30.725 22.3744 30.72Z" fill="#1B1C1D"/>
</svg>
